<svg id="angellist" xmlns="http://www.w3.org/2000/svg" width="153.418" height="218.529" viewBox="0 0 153.418 218.529">
  <path id="angellist-2" data-name="angellist" d="M115.1,46.1l-13.9,40,14.266,2.562q20.123-55,20.123-63.169,0-6.829-4.632-6.829Q124,18.66,115.1,46.1ZM78.633,129.877l4.025,10.733a56.115,56.115,0,0,1,8.656-8.171l-4.025-.668-4.692-.856-3.964-1.038ZM43.024,20.609q0,11.953,19.389,63.539a11.925,11.925,0,0,1,5.973-1.22q1.827,0,9.148.607l-14.751-42.8Q53.635,13.9,47.783,13.9a3.863,3.863,0,0,0-3.539,2.137A9.07,9.07,0,0,0,43.024,20.609ZM33.39,113.171q0,4.389,6.283,14.514A117.077,117.077,0,0,0,54,146.34q8.043,8.529,12.2,8.535A4.106,4.106,0,0,0,69.3,153.29,4.932,4.932,0,0,0,70.7,150q0-2.926-3.9-12.438-1.584-3.9-3.9-8.778T57.107,117.93a45.334,45.334,0,0,0-7.5-9.877q-4.025-3.9-7.564-3.9-2.44,0-5.548,3.29T33.39,113.171ZM14.122,154.025q0,5,3.047,12.681a58.728,58.728,0,0,0,22.376,27.681,61.022,61.022,0,0,0,34.328,10q27.681,0,46.584-20.731Q139,163.046,139,131.583q0-5.245-.121-8.171a35.3,35.3,0,0,0-1.4-7.564,13.952,13.952,0,0,0-3.721-6.829q-6.829-5.973-25.793-9.209a198.68,198.68,0,0,0-32.981-3.223q-4.51,0-5.973,1.342-1.463.607-1.463,4.268a11.139,11.139,0,0,0,2.622,7.315,17.047,17.047,0,0,0,6.769,4.881,55.985,55.985,0,0,0,9.452,2.865,64.128,64.128,0,0,0,10.666,1.4q5.36.249,10.368.486a76.41,76.41,0,0,0,8.535,0h2.8a6.127,6.127,0,0,1,4.881,2.319,13.091,13.091,0,0,1,2.319,6.708q-3.418,3.418-11.71,6.586a44.428,44.428,0,0,0-11.34,5.609,51.985,51.985,0,0,0-13.234,13.9q-5.427,8.292-5.427,16.706,0,3.782,2.258,10.793t2.252,10.672l-.364,1.463a10.245,10.245,0,0,0-.486,1.706q-16.706-1.22-17.8-26.34a29.243,29.243,0,0,1-5,.243,10.063,10.063,0,0,1,.243,2.562A14.125,14.125,0,0,1,60.4,182.987a16.68,16.68,0,0,1-11.522,4.45q-10,0-20.306-9.512T18.268,158.535q0-4.146,4.025-8.171,6.344,7.807,7.315,9.27Q39,172.315,45.828,172.315a6.488,6.488,0,0,0,3.229-1.038,2.972,2.972,0,0,0,1.773-2.495q0-4.146-10.672-17.683t-14.2-13.537q-5.245,0-8.535,5.427a21.068,21.068,0,0,0-3.29,11.036Zm-13.9,1.1q0-12.317,5.184-19.881T22.05,124.511q-3.418-9.027-3.418-12.681,0-7.564,7.436-15t14.879-7.436a25.622,25.622,0,0,1,8.535,1.827Q29.6,34.881,29.6,22.072q0-9.755,5-15.917T49.124,0Q65.1,0,88.758,70.854q.735,2.076.977,2.8.735-1.949,3.539-9.694t5.3-14.454q2.495-6.708,6.586-15.546a148.123,148.123,0,0,1,7.867-15,48.21,48.21,0,0,1,8.6-10.55q4.82-4.389,9.33-4.389,8.656,0,13.658,5.973t5,14.879q0,13.173-19.389,67.072a31.947,31.947,0,0,1,12.256,5.609,22.66,22.66,0,0,1,7.133,9.512,50.611,50.611,0,0,1,3.169,11.4,91.708,91.708,0,0,1,.856,13.476,99.717,99.717,0,0,1-5.73,34.146,82.843,82.843,0,0,1-16.1,27.438,73.4,73.4,0,0,1-25.733,18.29,83.831,83.831,0,0,1-33.9,6.708,76.994,76.994,0,0,1-27.2-5.123q-18.169-6.951-31.463-23.353T.221,155.124Z" transform="translate(-0.221)"/>
</svg>
