<?xml version="1.0" encoding="UTF-8"?><svg id="Layer_2" xmlns="http://www.w3.org/2000/svg" xmlns:xlink="http://www.w3.org/1999/xlink" viewBox="0 0 28.05 29.53"><defs><style>.cls-1{fill:url(#linear-gradient-2);}.cls-2,.cls-3{fill:none;}.cls-3{clip-path:url(#clippath);}.cls-4{fill:url(#linear-gradient-3);}.cls-5{fill:url(#linear-gradient);}</style><clipPath id="clippath"><rect class="cls-2" width="28.05" height="29.53"/></clipPath><linearGradient id="linear-gradient" x1="-356.35" y1="-744.22" x2="-356.35" y2="-745.22" gradientTransform="translate(4618.27 -16579.36) scale(12.94 -22.28)" gradientUnits="userSpaceOnUse"><stop offset="0" stop-color="#1baff8"/><stop offset="1" stop-color="#0f56b5"/></linearGradient><linearGradient id="linear-gradient-2" x1="-334.18" y1="-791.91" x2="-334.18" y2="-792.91" gradientTransform="translate(8598.11 -9894.53) scale(25.69 -12.52)" xlink:href="#linear-gradient"/><linearGradient id="linear-gradient-3" x1="-356.48" y1="-744.34" x2="-356.48" y2="-745.34" gradientTransform="translate(4621.78 -16547.52) scale(12.9 -22.23)" xlink:href="#linear-gradient"/></defs><g id="Layer_1-2"><g id="Group_177365"><g class="cls-3"><g id="Group_175504-4"><path id="Path_89924-4" class="cls-5" d="m12.9.26c0,.11.02.21.02.3,0,4.76,0,9.53,0,14.29.02.18-.08.35-.25.42-1.26.71-2.51,1.43-3.76,2.15-1.1.64-2.19,1.28-3.29,1.92-1.4.81-2.79,1.61-4.19,2.41-.44.25-.88.51-1.31.76-.02,0-.04.01-.07.01,0-.06-.01-.11-.01-.17-.01-3.23-.02-6.46-.05-9.69-.04-.28.11-.56.37-.68.75-.4,1.49-.84,2.23-1.27.78-.45,1.56-.91,2.35-1.37,1.18-.68,2.37-1.36,3.56-2.04.52-.3,1.04-.6,1.56-.89.12-.06.2-.19.19-.33,0-1.4.01-2.8.03-4.2,0-.07.04-.14.1-.18.83-.49,1.66-.97,2.53-1.47m-2.65,9.16c-.13.06-.21.1-.29.15-.57.33-1.15.66-1.72.98l-3.27,1.88c-.71.41-1.41.81-2.11,1.22-.09.05-.18.1-.18.24.02,1.29.03,2.59.04,3.88,0,.05,0,.09.02.16.07-.04.12-.06.17-.08,1.17-.68,2.33-1.36,3.5-2.03,1.25-.72,2.5-1.44,3.75-2.15.09-.04.14-.13.13-.23-.01-.85-.02-1.7-.03-2.55v-1.48"/><path id="Path_89925-4" class="cls-1" d="m26.87,24.39c-.06.04-.1.08-.15.1-1.4.81-2.79,1.61-4.19,2.41-.78.45-1.56.92-2.34,1.38-.69.41-1.39.81-2.08,1.21-.08.04-.18.05-.26.01-1.18-.67-2.35-1.34-3.53-2.02-1.23-.71-2.45-1.43-3.67-2.14-.9-.52-1.79-1.04-2.69-1.56-.13-.09-.3-.09-.43,0-.8.47-1.61.92-2.41,1.38-.4.23-.81.47-1.22.7-.06.03-.13.04-.2.01-.81-.47-1.62-.94-2.44-1.41-.03-.02-.06-.05-.09-.07.36-.21.7-.43,1.05-.63.53-.31,1.07-.61,1.6-.91,1.54-.89,3.08-1.77,4.62-2.66,1.11-.64,2.22-1.3,3.34-1.94.68-.39,1.36-.78,2.05-1.17.12-.08.28-.08.4,0,1.19.69,2.39,1.37,3.58,2.06,1.62.94,3.24,1.88,4.86,2.82l4.1,2.37s.05.04.1.07m-16.44-2.26c.31.19.58.37.86.53,1.08.62,2.17,1.24,3.24,1.86,1.1.63,2.2,1.27,3.29,1.91.08.05.14.09.25.03,1.12-.66,2.24-1.32,3.35-1.97.04-.02.08-.06.12-.09-.02-.02-.04-.04-.06-.06l-1.48-.86c-1.18-.69-2.36-1.37-3.54-2.06-.74-.43-1.5-.85-2.23-1.29-.12-.09-.29-.09-.42,0-.86.51-1.72,1.01-2.58,1.52-.27.16-.53.32-.82.49"/><path id="Path_89926-4" class="cls-4" d="m15.15,0c.4.22.76.4,1.12.61,1.33.76,2.67,1.53,4,2.29,1.17.67,2.33,1.36,3.52,2,.25.11.39.37.35.64-.01,2.33-.01,4.65-.02,6.97,0,1.41,0,2.83,0,4.24,0,.09.04.17.1.22,1.04.62,2.08,1.23,3.12,1.83.18.11.36.21.56.3.1.04.17.15.15.25-.01.75-.02,1.49-.02,2.24v.63c-.3-.16-.58-.3-.85-.45-.9-.52-1.81-1.04-2.71-1.56-1.67-.97-3.34-1.93-5.01-2.9-1.38-.8-2.76-1.59-4.15-2.38-.11-.06-.18-.18-.17-.31,0-.89,0-1.79,0-2.68,0-3.62,0-7.24,0-10.85V0m2.67,4.57v8.54c-.02.1.03.19.11.24,1.13.64,2.26,1.28,3.38,1.93.04.02.09.04.15.07v-.51c0-1.45.01-2.91.02-4.36,0-1.23.01-2.46,0-3.69,0-.09-.06-.16-.13-.21-.81-.47-1.62-.93-2.43-1.39-.36-.2-.71-.4-1.11-.62"/></g></g></g></g></svg>