<svg xmlns="http://www.w3.org/2000/svg" width="93.089" height="97.946" viewBox="0 0 93.089 97.946">
  <g id="Group_175504" data-name="Group 175504" transform="translate(46.544 48.973)">
    <g id="Group_175504-2" data-name="Group 175504" transform="translate(-46.544 -48.973)">
      <path id="Path_89924" data-name="Path 89924" d="M42.8.207c.03.372.076.684.076,1q0,23.7.03,47.4a1.381,1.381,0,0,1-.824,1.411c-4.183,2.345-8.336,4.744-12.484,7.14C25.949,59.27,22.32,61.383,18.678,63.5Q11.739,67.513,4.8,71.522L.444,74.057a1.012,1.012,0,0,1-.224.051c0-.2-.038-.376-.038-.553C.135,62.828.114,52.113.026,41.395a2.113,2.113,0,0,1,1.229-2.26c2.5-1.327,4.935-2.78,7.389-4.2,2.6-1.5,5.18-3.033,7.782-4.529q5.887-3.378,11.8-6.76c1.72-.984,3.435-1.981,5.167-2.957a1.079,1.079,0,0,0,.617-1.048q0-6.977.093-13.942a.844.844,0,0,1,.33-.617C37.175,3.464,39.921,1.872,42.8.215M34,30.562c-.422.211-.7.346-.976.5l-5.7,3.266-10.845,6.24L9.468,44.614c-.313.182-.591.338-.583.8.055,4.288.089,8.576.127,12.865,0,.156.034.313.059.545.237-.118.422-.19.566-.283,3.866-2.248,7.727-4.512,11.6-6.76q6.2-3.581,12.429-7.127a.741.741,0,0,0,.422-.76q-.07-4.227-.093-8.45v-4.9" transform="translate(0 0.668)" fill="#2a2a2a"/>
      <path id="Path_89925" data-name="Path 89925" d="M86.129,37.827a5.453,5.453,0,0,1-.482.346Q78.708,42.179,71.764,46.2c-2.6,1.5-5.175,3.046-7.765,4.563-2.3,1.348-4.6,2.7-6.912,4.009a1.052,1.052,0,0,1-.845.051q-5.862-3.327-11.694-6.7c-4.069-2.357-8.12-4.736-12.184-7.1-2.957-1.728-5.953-3.435-8.914-5.18a1.226,1.226,0,0,0-1.407,0c-2.662,1.546-5.336,3.063-8.027,4.592-1.343.769-2.679,1.555-4.035,2.307a.788.788,0,0,1-.655.038q-4.056-2.326-8.082-4.694a3.4,3.4,0,0,1-.3-.249c1.187-.714,2.319-1.415,3.469-2.083,1.766-1.022,3.549-2.011,5.319-3.029q7.662-4.4,15.315-8.826c3.693-2.138,7.368-4.3,11.061-6.443,2.256-1.305,4.529-2.581,6.785-3.887a1.162,1.162,0,0,1,1.339,0c3.946,2.3,7.926,4.554,11.88,6.84q8.067,4.645,16.122,9.345l13.583,7.862c.093.055.177.123.325.228M31.594,30.362c1.014.63,1.914,1.217,2.848,1.753,3.583,2.062,7.182,4.1,10.761,6.16q5.469,3.15,10.925,6.337c.262.152.473.3.82.1q5.558-3.289,11.128-6.548c.139-.08.262-.19.422-.3a1.083,1.083,0,0,0-.19-.2l-4.9-2.839L51.667,27.988c-2.467-1.428-4.96-2.814-7.406-4.271a1.16,1.16,0,0,0-1.382,0c-2.839,1.69-5.691,3.35-8.543,5.028-.891.524-1.774,1.052-2.733,1.622" transform="translate(3.028 43.057)" fill="#2a2a2a"/>
      <path id="Path_89926" data-name="Path 89926" d="M11.908,0c1.318.714,2.535,1.339,3.7,2.011q6.641,3.8,13.266,7.6c3.883,2.226,7.74,4.5,11.669,6.637a1.977,1.977,0,0,1,1.149,2.112c-.046,7.719-.046,15.433-.046,23.139v14.06a1,1,0,0,0,.346.739q5.165,3.067,10.359,6.08c.6.351,1.208.71,1.838,1.006a.8.8,0,0,1,.5.845c-.034,2.476-.055,4.952-.076,7.427v2.112c-.993-.532-1.914-1-2.81-1.508q-4.5-2.573-8.982-5.175-8.308-4.81-16.608-9.637-6.863-3.973-13.752-7.9a1.039,1.039,0,0,1-.558-1.018q.019-4.449,0-8.9V0m8.843,15.171V43.516a.783.783,0,0,0,.372.807q5.621,3.188,11.221,6.4c.139.08.3.131.5.22v-1.69L32.9,34.792c0-4.081.034-8.167.021-12.252a.966.966,0,0,0-.422-.7c-2.679-1.555-5.374-3.08-8.069-4.609-1.179-.668-2.357-1.331-3.667-2.07" transform="translate(38.389)" fill="#2a2a2a"/>
    </g>
  </g>
</svg>
